# xmcd CD database file
#
# Track frame offsets:
#	150
#	31813
#	56543
#	95956
#	127988
#	151460
#	169263
#	208961
#	242072
#	269202
#	298145
#	336240
#
# Disc length: 4781 seconds
#
# Revision: 0
# Processed by: cddbd v1.5.2PL0 Copyright (c) Steve Scherf et al.
# Submitted via: CDex 1.82
#
DISCID=c012ab0c
DTITLE=Vahagn Hayrapetyan Daniel Kramer - Live in Ekaterinburg
DYEAR=2012
DGENRE=Jazz
TTITLE0=Take five
TTITLE1=Straight No Chaser
TTITLE2=Bluesette
TTITLE3=East of The Sun
TTITLE4=Georgia on My Mind
TTITLE5=All of Me
TTITLE6=Yesterdays
TTITLE7=Someday My Prince Will Come
TTITLE8=Tea For Two
TTITLE9=Take The A Train
TTITLE10=Honeysuckle Rose
TTITLE11=Whyskey Drinking Woman
EXTD=YEAR: 2012
EXTT0=
EXTT1=
EXTT2=
EXTT3=
EXTT4=
EXTT5=
EXTT6=
EXTT7=
EXTT8=
EXTT9=
EXTT10=
EXTT11=
PLAYORDER=
